<svg xmlns="http://www.w3.org/2000/svg" width="1280" height="900" viewBox="0 0 1280 900"><rect width="1280" height="900" fill="#06090E"/><text x="64" y="84" font-family="Manrope, Arial, sans-serif" font-size="42" font-weight="600" fill="#F6F4EE">VESTIGE</text><text x="64" y="120" font-family="Inter, Arial, sans-serif" font-size="18" fill="#9BA7B5" letter-spacing="2">BRAND PALETTE</text><text x="64" y="180" font-family="Inter, Arial, sans-serif" font-size="15" fill="#9BA7B5" letter-spacing="2">CORE</text><text x="64" y="440" font-family="Inter, Arial, sans-serif" font-size="15" fill="#9BA7B5" letter-spacing="2">ACCENTS</text><rect x="64" y="210" width="200" height="124" rx="14" fill="#06090E" stroke="rgba(255,255,255,0.18)" stroke-width="1"/><text x="64" y="362" font-family="Inter, Arial, sans-serif" font-size="17" font-weight="600" fill="#F6F4EE">Background</text><text x="64" y="384" font-family="SFMono-Regular, Consolas, monospace" font-size="15" fill="#9BA7B5">#06090E</text><rect x="288" y="210" width="200" height="124" rx="14" fill="#0B1119" stroke="rgba(255,255,255,0.18)" stroke-width="1"/><text x="288" y="362" font-family="Inter, Arial, sans-serif" font-size="17" font-weight="600" fill="#F6F4EE">Sheet</text><text x="288" y="384" font-family="SFMono-Regular, Consolas, monospace" font-size="15" fill="#9BA7B5">#0B1119</text><rect x="512" y="210" width="200" height="124" rx="14" fill="#F6F4EE"/><text x="512" y="362" font-family="Inter, Arial, sans-serif" font-size="17" font-weight="600" fill="#F6F4EE">Ink (text)</text><text x="512" y="384" font-family="SFMono-Regular, Consolas, monospace" font-size="15" fill="#9BA7B5">#F6F4EE</text><rect x="736" y="210" width="200" height="124" rx="14" fill="#9BA7B5"/><text x="736" y="362" font-family="Inter, Arial, sans-serif" font-size="17" font-weight="600" fill="#F6F4EE">Ink 2</text><text x="736" y="384" font-family="SFMono-Regular, Consolas, monospace" font-size="15" fill="#9BA7B5">#9BA7B5</text><rect x="960" y="210" width="200" height="124" rx="14" fill="#5F6B7A"/><text x="960" y="362" font-family="Inter, Arial, sans-serif" font-size="17" font-weight="600" fill="#F6F4EE">Ink 3</text><text x="960" y="384" font-family="SFMono-Regular, Consolas, monospace" font-size="15" fill="#9BA7B5">#5F6B7A</text><rect x="64" y="470" width="200" height="124" rx="14" fill="#5BE4C3"/><text x="64" y="622" font-family="Inter, Arial, sans-serif" font-size="17" font-weight="600" fill="#F6F4EE">Mint (primary)</text><text x="64" y="644" font-family="SFMono-Regular, Consolas, monospace" font-size="15" fill="#9BA7B5">#5BE4C3</text><rect x="288" y="470" width="200" height="124" rx="14" fill="#8FE85B"/><text x="288" y="622" font-family="Inter, Arial, sans-serif" font-size="17" font-weight="600" fill="#F6F4EE">Lime</text><text x="288" y="644" font-family="SFMono-Regular, Consolas, monospace" font-size="15" fill="#9BA7B5">#8FE85B</text><rect x="512" y="470" width="200" height="124" rx="14" fill="#06090E" stroke="rgba(255,255,255,0.18)" stroke-width="1"/><text x="512" y="622" font-family="Inter, Arial, sans-serif" font-size="17" font-weight="600" fill="#F6F4EE">On-accent</text><text x="512" y="644" font-family="SFMono-Regular, Consolas, monospace" font-size="15" fill="#9BA7B5">#06090E</text><rect x="736" y="470" width="200" height="124" rx="14" fill="#F4A85C"/><text x="736" y="622" font-family="Inter, Arial, sans-serif" font-size="17" font-weight="600" fill="#F6F4EE">Amber</text><text x="736" y="644" font-family="SFMono-Regular, Consolas, monospace" font-size="15" fill="#9BA7B5">#F4A85C</text><rect x="960" y="470" width="200" height="124" rx="14" fill="#E2664E"/><text x="960" y="622" font-family="Inter, Arial, sans-serif" font-size="17" font-weight="600" fill="#F6F4EE">Claret</text><text x="960" y="644" font-family="SFMono-Regular, Consolas, monospace" font-size="15" fill="#9BA7B5">#E2664E</text><defs><linearGradient id="mintlime" x1="0" y1="0" x2="1" y2="1"><stop offset="0%" stop-color="#5BE4C3"/><stop offset="100%" stop-color="#8FE85B"/></linearGradient></defs><text x="64" y="684" font-family="Inter, Arial, sans-serif" font-size="15" fill="#9BA7B5" letter-spacing="2">SIGNATURE GRADIENT — linear-gradient(135deg, #5BE4C3, #8FE85B)</text><rect x="64" y="700" width="1152" height="90" rx="16" fill="url(#mintlime)"/><text x="88" y="754" font-family="Manrope, Arial, sans-serif" font-size="30" font-weight="700" fill="#06090E">Every golf course in England, collected.</text><text x="64" y="850" font-family="Inter, Arial, sans-serif" font-size="16" fill="#F6F4EE">Type — Display: Manrope (500)   ·   UI/body: Inter   ·   Wordmark: VESTIGE, uppercase, tracked</text></svg>